# xmcd
#
# Track frame offsets: 
#        150
#        8916
#        27648
#        48963
#        72850
#        94449
#        113153
#        131409
#        150372
#        178974
#        196377
#        211805
#        245363
#
# Disc length: 3960 seconds
#
# Revision: 0
# Processed by: cddbd v1.4PL0 Copyright (c) Steve Scherf et al.
# Submitted via: ExactAudioCopy v0.95a3
#
DISCID=b00f760d
DTITLE=Tequilajazzz - Сто пятьдесят миллиардов шагов
DYEAR=1999
DGENRE=Blues
TTITLE0=Первая
TTITLE1=Такая же, как и я
TTITLE2=Стратосфера
TTITLE3=Прольюсь
TTITLE4=Ветры лестниц - 2
TTITLE5=Меня здесь нет
TTITLE6=Там, где...
TTITLE7=Кроме звезд (piano version)
TTITLE8=Тени
TTITLE9=Лебединая Сталь
TTITLE10=Тридцать лет тишины
TTITLE11=Последняя
TTITLE12=Video
EXTD=
EXTT0=
EXTT1=
EXTT2=
EXTT3=
EXTT4=
EXTT5=
EXTT6=
EXTT7=
EXTT8=
EXTT9=
EXTT10=
EXTT11=
EXTT12=
PLAYORDER=
